<svg width="32" height="25" viewBox="0 0 32 25" fill="none" xmlns="http://www.w3.org/2000/svg">
<path d="M8 25C5.79394 25 3.90933 24.1758 2.34618 22.5275C0.78206 20.8791 0 18.8645 0 16.4835C0 14.4427 0.569697 12.6243 1.70909 11.0283C2.84848 9.43223 4.33939 8.41183 6.18182 7.96703C6.73939 5.84772 7.776 4.06855 9.29164 2.62951C10.8063 1.19048 12.5576 0.313972 14.5455 0V12.6766L13.2364 11.303C12.9697 11.0152 12.6366 10.8713 12.2371 10.8713C11.8366 10.8713 11.4909 11.0283 11.2 11.3422C10.9333 11.63 10.8 11.9963 10.8 12.4411C10.8 12.8859 10.9333 13.2522 11.2 13.54L14.9818 17.6217C15.2727 17.9356 15.6121 18.0926 16 18.0926C16.3879 18.0926 16.7273 17.9356 17.0182 17.6217L20.8 13.54C21.0667 13.2522 21.2063 12.8922 21.2189 12.46C21.2305 12.0288 21.0909 11.6562 20.8 11.3422C20.5333 11.0544 20.2002 10.9037 19.8007 10.8901C19.4002 10.8776 19.0545 11.0152 18.7636 11.303L17.4545 12.6766V0C19.9515 0.3663 22.0305 1.57614 23.6916 3.62951C25.3518 5.68394 26.1818 8.09785 26.1818 10.8713C27.8545 11.0806 29.2427 11.8587 30.3462 13.2057C31.4487 14.5536 32 16.1303 32 17.9356C32 19.898 31.3639 21.5662 30.0916 22.9403C28.8184 24.3134 27.2727 25 25.4545 25H8Z" fill="#02A28F"/>
</svg>
